# xmcd
#
# Track frame offsets:
#	150
#	12360
#	26857
#	42005
#	60097
#	76535
#	86995
#	103407
#	113117
#	127942
#	146910
#	156450
#	176317
#	189305
#	200570
#	212582
#	222272
#	232365
#	244750
#	256740
#	258740
#	268262
#	278792
#	286712
#	296800
#	307650
#	319600
#	331105
#	341882
# Disc length: 4711 seconds
# Revision: 1
# Processed by: cddbd v1.5.1PL0 Copyright (c) Steve Scherf et al.
#
# Submitted via: libkcddb 0.10
#
DISCID=b012651d
DTITLE=Piano Red - Dr. Feelgood - The Doctor's In [CD 3)
DYEAR=1900
DGENRE=Blues
TTITLE0=Ain't Nobody's Fool (& Bertha Colbert) Live 1956
TTITLE1=Right String But The Wrong Yo Yo Live 1956
TTITLE2=Don't Get Around Much Anymore Live 1956
TTITLE3=Umph, Umph, Umph Live 1956
TTITLE4=Got You On My Mind Live 1956
TTITLE5=It's Time To Boogie Live 1993
TTITLE6=That's My Desire Live 1956
TTITLE7=Teen-Age Bounce Live 1993
TTITLE8=Pay It No Mind Live 1993
TTITLE9=Hey Good Lookin' Live 1993
TTITLE10=I Ain't Fattenin' Frogs For Snakes Live 1956
TTITLE11=Rockin' With Red Live 1956
TTITLE12=Get Up Mare (With Dubbed Handclaps) 1958
TTITLE13=1, 2, 3 1974
TTITLE14=My Baby 1993
TTITLE15=Rock And Roll Boogie 1993
TTITLE16=Nighttime 1993
TTITLE17=So Worried 1958
TTITLE18=Blues, Blues 1993
TTITLE19=Sudio Chatter 1950
TTITLE20=Boogie Re-Bop 1974
TTITLE21=This Old World 1959
TTITLE22=I Feel Good 1959
TTITLE23=Talk To Me (& The Meter Tones, Curtis Smith Vocal) 1960
TTITLE24=Believe In Me (& The Meter Tones, Curtis Smith Vocal) 1960
TTITLE25=Guitar Walk 1960
TTITLE26=I've Been Rockin' 1960
TTITLE27=Rockin' With Red 1960
TTITLE28=So Shook Up (& Curtis Smith) 1960
EXTD=
EXTT0=
EXTT1=
EXTT2=
EXTT3=
EXTT4=
EXTT5=
EXTT6=
EXTT7=
EXTT8=
EXTT9=
EXTT10=
EXTT11=
EXTT12=
EXTT13=
EXTT14=
EXTT15=
EXTT16=
EXTT17=
EXTT18=
EXTT19=
EXTT20=
EXTT21=
EXTT22=
EXTT23=
EXTT24=
EXTT25=
EXTT26=
EXTT27=
EXTT28=
PLAYORDER=
